<?xml version="1.0" encoding="UTF-8" standalone="no"?>
<!DOCTYPE svg PUBLIC "-//W3C//DTD SVG 1.1//EN"
 "http://www.w3.org/Graphics/SVG/1.1/DTD/svg11.dtd">
<!-- Generated by graphviz version 2.43.0 (0)
 -->
<!-- Title: %3 Pages: 1 -->
<svg width="2687pt" height="458pt"
 viewBox="0.00 0.00 2687.00 458.00" xmlns="http://www.w3.org/2000/svg" xmlns:xlink="http://www.w3.org/1999/xlink">
<g id="graph0" class="graph" transform="scale(1 1) rotate(0) translate(4 454)">
<title>%3</title>
<polygon fill="white" stroke="transparent" points="-4,4 -4,-454 2683,-454 2683,4 -4,4"/>
<!-- 133220104007696 -->
<g id="node1" class="node">
<title>133220104007696</title>
<polygon fill="none" stroke="black" points="1565.5,-275.5 1565.5,-311.5 1747.5,-311.5 1747.5,-275.5 1565.5,-275.5"/>
<text text-anchor="middle" x="1575.5" y="-289.8" font-family="Times,serif" font-size="14.00"> </text>
<polyline fill="none" stroke="black" points="1585.5,-275.5 1585.5,-311.5 "/>
<text text-anchor="middle" x="1625.5" y="-289.8" font-family="Times,serif" font-size="14.00">data 0.2049</text>
<polyline fill="none" stroke="black" points="1665.5,-275.5 1665.5,-311.5 "/>
<text text-anchor="middle" x="1706.5" y="-289.8" font-family="Times,serif" font-size="14.00">grad 0.5256</text>
</g>
<!-- 133219343892432+ -->
<g id="node20" class="node">
<title>133219343892432+</title>
<ellipse fill="none" stroke="black" cx="1813" cy="-238.5" rx="27" ry="18"/>
<text text-anchor="middle" x="1813" y="-234.8" font-family="Times,serif" font-size="14.00">+</text>
</g>
<!-- 133220104007696&#45;&gt;133219343892432+ -->
<g id="edge28" class="edge">
<title>133220104007696&#45;&gt;133219343892432+</title>
<path fill="none" stroke="black" d="M1723.56,-275.45C1732.51,-272.64 1741.53,-269.63 1750,-266.5 1760.49,-262.62 1771.71,-257.78 1781.68,-253.22"/>
<polygon fill="black" stroke="black" points="1783.2,-256.37 1790.79,-248.97 1780.25,-250.02 1783.2,-256.37"/>
</g>
<!-- 133219343878288 -->
<g id="node2" class="node">
<title>133219343878288</title>
<polygon fill="none" stroke="black" points="634.5,-165.5 634.5,-201.5 816.5,-201.5 816.5,-165.5 634.5,-165.5"/>
<text text-anchor="middle" x="644.5" y="-179.8" font-family="Times,serif" font-size="14.00"> </text>
<polyline fill="none" stroke="black" points="654.5,-165.5 654.5,-201.5 "/>
<text text-anchor="middle" x="694.5" y="-179.8" font-family="Times,serif" font-size="14.00">data 1.4259</text>
<polyline fill="none" stroke="black" points="734.5,-165.5 734.5,-201.5 "/>
<text text-anchor="middle" x="775.5" y="-179.8" font-family="Times,serif" font-size="14.00">grad 0.0000</text>
</g>
<!-- 133219343878992+ -->
<g id="node25" class="node">
<title>133219343878992+</title>
<ellipse fill="none" stroke="black" cx="884" cy="-128.5" rx="27" ry="18"/>
<text text-anchor="middle" x="884" y="-124.8" font-family="Times,serif" font-size="14.00">+</text>
</g>
<!-- 133219343878288&#45;&gt;133219343878992+ -->
<g id="edge33" class="edge">
<title>133219343878288&#45;&gt;133219343878992+</title>
<path fill="none" stroke="black" d="M794.25,-165.44C803.31,-162.65 812.43,-159.64 821,-156.5 831.5,-152.65 842.72,-147.82 852.69,-143.25"/>
<polygon fill="black" stroke="black" points="854.22,-146.4 861.8,-139 851.26,-140.06 854.22,-146.4"/>
</g>
<!-- 133219343878288* -->
<g id="node3" class="node">
<title>133219343878288*</title>
<ellipse fill="none" stroke="black" cx="567" cy="-183.5" rx="27" ry="18"/>
<text text-anchor="middle" x="567" y="-179.8" font-family="Times,serif" font-size="14.00">*</text>
</g>
<!-- 133219343878288*&#45;&gt;133219343878288 -->
<g id="edge1" class="edge">
<title>133219343878288*&#45;&gt;133219343878288</title>
<path fill="none" stroke="black" d="M594.19,-183.5C602.92,-183.5 613.23,-183.5 624.17,-183.5"/>
<polygon fill="black" stroke="black" points="624.36,-187 634.36,-183.5 624.36,-180 624.36,-187"/>
</g>
<!-- 133223314506064 -->
<g id="node4" class="node">
<title>133223314506064</title>
<polygon fill="none" stroke="black" points="632,-330.5 632,-366.5 819,-366.5 819,-330.5 632,-330.5"/>
<text text-anchor="middle" x="642" y="-344.8" font-family="Times,serif" font-size="14.00"> </text>
<polyline fill="none" stroke="black" points="652,-330.5 652,-366.5 "/>
<text text-anchor="middle" x="694.5" y="-344.8" font-family="Times,serif" font-size="14.00">data &#45;0.1743</text>
<polyline fill="none" stroke="black" points="737,-330.5 737,-366.5 "/>
<text text-anchor="middle" x="778" y="-344.8" font-family="Times,serif" font-size="14.00">grad 0.0000</text>
</g>
<!-- 133219343891280+ -->
<g id="node23" class="node">
<title>133219343891280+</title>
<ellipse fill="none" stroke="black" cx="884" cy="-293.5" rx="27" ry="18"/>
<text text-anchor="middle" x="884" y="-289.8" font-family="Times,serif" font-size="14.00">+</text>
</g>
<!-- 133223314506064&#45;&gt;133219343891280+ -->
<g id="edge24" class="edge">
<title>133223314506064&#45;&gt;133219343891280+</title>
<path fill="none" stroke="black" d="M794.25,-330.44C803.31,-327.65 812.43,-324.64 821,-321.5 831.5,-317.65 842.72,-312.82 852.69,-308.25"/>
<polygon fill="black" stroke="black" points="854.22,-311.4 861.8,-304 851.26,-305.06 854.22,-311.4"/>
</g>
<!-- 133223314506064+ -->
<g id="node5" class="node">
<title>133223314506064+</title>
<ellipse fill="none" stroke="black" cx="567" cy="-348.5" rx="27" ry="18"/>
<text text-anchor="middle" x="567" y="-344.8" font-family="Times,serif" font-size="14.00">+</text>
</g>
<!-- 133223314506064+&#45;&gt;133223314506064 -->
<g id="edge2" class="edge">
<title>133223314506064+&#45;&gt;133223314506064</title>
<path fill="none" stroke="black" d="M594.19,-348.5C602.22,-348.5 611.59,-348.5 621.55,-348.5"/>
<polygon fill="black" stroke="black" points="621.68,-352 631.68,-348.5 621.68,-345 621.68,-352"/>
</g>
<!-- 133219343882576 -->
<g id="node6" class="node">
<title>133219343882576</title>
<polygon fill="none" stroke="black" points="1876,-165.5 1876,-201.5 2063,-201.5 2063,-165.5 1876,-165.5"/>
<text text-anchor="middle" x="1886" y="-179.8" font-family="Times,serif" font-size="14.00"> </text>
<polyline fill="none" stroke="black" points="1896,-165.5 1896,-201.5 "/>
<text text-anchor="middle" x="1938.5" y="-179.8" font-family="Times,serif" font-size="14.00">data &#45;0.8501</text>
<polyline fill="none" stroke="black" points="1981,-165.5 1981,-201.5 "/>
<text text-anchor="middle" x="2022" y="-179.8" font-family="Times,serif" font-size="14.00">grad 0.0000</text>
</g>
<!-- 133219343890192+ -->
<g id="node38" class="node">
<title>133219343890192+</title>
<ellipse fill="none" stroke="black" cx="2126" cy="-210.5" rx="27" ry="18"/>
<text text-anchor="middle" x="2126" y="-206.8" font-family="Times,serif" font-size="14.00">+</text>
</g>
<!-- 133219343882576&#45;&gt;133219343890192+ -->
<g id="edge29" class="edge">
<title>133219343882576&#45;&gt;133219343890192+</title>
<path fill="none" stroke="black" d="M2063.05,-199.67C2072.34,-201.3 2081.33,-202.87 2089.44,-204.29"/>
<polygon fill="black" stroke="black" points="2089.1,-207.78 2099.55,-206.05 2090.3,-200.88 2089.1,-207.78"/>
</g>
<!-- 133219343882576* -->
<g id="node7" class="node">
<title>133219343882576*</title>
<ellipse fill="none" stroke="black" cx="1813" cy="-183.5" rx="27" ry="18"/>
<text text-anchor="middle" x="1813" y="-179.8" font-family="Times,serif" font-size="14.00">*</text>
</g>
<!-- 133219343882576*&#45;&gt;133219343882576 -->
<g id="edge3" class="edge">
<title>133219343882576*&#45;&gt;133219343882576</title>
<path fill="none" stroke="black" d="M1840.21,-183.5C1847.73,-183.5 1856.43,-183.5 1865.67,-183.5"/>
<polygon fill="black" stroke="black" points="1865.89,-187 1875.89,-183.5 1865.89,-180 1865.89,-187"/>
</g>
<!-- 133223315589520 -->
<g id="node8" class="node">
<title>133223315589520</title>
<polygon fill="none" stroke="black" points="317.5,-275.5 317.5,-311.5 503.5,-311.5 503.5,-275.5 317.5,-275.5"/>
<text text-anchor="middle" x="327.5" y="-289.8" font-family="Times,serif" font-size="14.00"> </text>
<polyline fill="none" stroke="black" points="337.5,-275.5 337.5,-311.5 "/>
<text text-anchor="middle" x="377.5" y="-289.8" font-family="Times,serif" font-size="14.00">data 0.4820</text>
<polyline fill="none" stroke="black" points="417.5,-275.5 417.5,-311.5 "/>
<text text-anchor="middle" x="460.5" y="-289.8" font-family="Times,serif" font-size="14.00">grad &#45;0.4862</text>
</g>
<!-- 133219343889104* -->
<g id="node17" class="node">
<title>133219343889104*</title>
<ellipse fill="none" stroke="black" cx="567" cy="-293.5" rx="27" ry="18"/>
<text text-anchor="middle" x="567" y="-289.8" font-family="Times,serif" font-size="14.00">*</text>
</g>
<!-- 133223315589520&#45;&gt;133219343889104* -->
<g id="edge37" class="edge">
<title>133223315589520&#45;&gt;133219343889104*</title>
<path fill="none" stroke="black" d="M503.6,-293.5C512.77,-293.5 521.65,-293.5 529.69,-293.5"/>
<polygon fill="black" stroke="black" points="529.74,-297 539.74,-293.5 529.74,-290 529.74,-297"/>
</g>
<!-- 133219345050064 -->
<g id="node9" class="node">
<title>133219345050064</title>
<polygon fill="none" stroke="black" points="1255,-220.5 1255,-256.5 1437,-256.5 1437,-220.5 1255,-220.5"/>
<text text-anchor="middle" x="1265" y="-234.8" font-family="Times,serif" font-size="14.00"> </text>
<polyline fill="none" stroke="black" points="1275,-220.5 1275,-256.5 "/>
<text text-anchor="middle" x="1315" y="-234.8" font-family="Times,serif" font-size="14.00">data 0.8672</text>
<polyline fill="none" stroke="black" points="1355,-220.5 1355,-256.5 "/>
<text text-anchor="middle" x="1396" y="-234.8" font-family="Times,serif" font-size="14.00">grad 0.0140</text>
</g>
<!-- 133219343876816* -->
<g id="node15" class="node">
<title>133219343876816*</title>
<ellipse fill="none" stroke="black" cx="1500" cy="-238.5" rx="27" ry="18"/>
<text text-anchor="middle" x="1500" y="-234.8" font-family="Times,serif" font-size="14.00">*</text>
</g>
<!-- 133219345050064&#45;&gt;133219343876816* -->
<g id="edge22" class="edge">
<title>133219345050064&#45;&gt;133219343876816*</title>
<path fill="none" stroke="black" d="M1437.18,-238.5C1446.14,-238.5 1454.83,-238.5 1462.73,-238.5"/>
<polygon fill="black" stroke="black" points="1462.96,-242 1472.96,-238.5 1462.96,-235 1462.96,-242"/>
</g>
<!-- 133219345381840 -->
<g id="node10" class="node">
<title>133219345381840</title>
<polygon fill="none" stroke="black" points="317.5,-165.5 317.5,-201.5 503.5,-201.5 503.5,-165.5 317.5,-165.5"/>
<text text-anchor="middle" x="327.5" y="-179.8" font-family="Times,serif" font-size="14.00"> </text>
<polyline fill="none" stroke="black" points="337.5,-165.5 337.5,-201.5 "/>
<text text-anchor="middle" x="377.5" y="-179.8" font-family="Times,serif" font-size="14.00">data 0.7130</text>
<polyline fill="none" stroke="black" points="417.5,-165.5 417.5,-201.5 "/>
<text text-anchor="middle" x="460.5" y="-179.8" font-family="Times,serif" font-size="14.00">grad &#45;0.3222</text>
</g>
<!-- 133219345381840&#45;&gt;133219343878288* -->
<g id="edge26" class="edge">
<title>133219345381840&#45;&gt;133219343878288*</title>
<path fill="none" stroke="black" d="M503.6,-183.5C512.77,-183.5 521.65,-183.5 529.69,-183.5"/>
<polygon fill="black" stroke="black" points="529.74,-187 539.74,-183.5 529.74,-180 529.74,-187"/>
</g>
<!-- 133219343886928 -->
<g id="node11" class="node">
<title>133219343886928</title>
<polygon fill="none" stroke="black" points="319.5,-110.5 319.5,-146.5 501.5,-146.5 501.5,-110.5 319.5,-110.5"/>
<text text-anchor="middle" x="329.5" y="-124.8" font-family="Times,serif" font-size="14.00"> </text>
<polyline fill="none" stroke="black" points="339.5,-110.5 339.5,-146.5 "/>
<text text-anchor="middle" x="379.5" y="-124.8" font-family="Times,serif" font-size="14.00">data 2.0000</text>
<polyline fill="none" stroke="black" points="419.5,-110.5 419.5,-146.5 "/>
<text text-anchor="middle" x="460.5" y="-124.8" font-family="Times,serif" font-size="14.00">grad 0.0000</text>
</g>
<!-- 133219343886928&#45;&gt;133219343878288* -->
<g id="edge36" class="edge">
<title>133219343886928&#45;&gt;133219343878288*</title>
<path fill="none" stroke="black" d="M475.02,-146.65C484.79,-149.76 494.71,-153.08 504,-156.5 514.25,-160.27 525.23,-164.86 535.07,-169.18"/>
<polygon fill="black" stroke="black" points="533.89,-172.49 544.45,-173.37 536.74,-166.1 533.89,-172.49"/>
</g>
<!-- 133219343886992 -->
<g id="node12" class="node">
<title>133219343886992</title>
<polygon fill="none" stroke="black" points="1565.5,-110.5 1565.5,-146.5 1747.5,-146.5 1747.5,-110.5 1565.5,-110.5"/>
<text text-anchor="middle" x="1575.5" y="-124.8" font-family="Times,serif" font-size="14.00"> </text>
<polyline fill="none" stroke="black" points="1585.5,-110.5 1585.5,-146.5 "/>
<text text-anchor="middle" x="1625.5" y="-124.8" font-family="Times,serif" font-size="14.00">data 0.9998</text>
<polyline fill="none" stroke="black" points="1665.5,-110.5 1665.5,-146.5 "/>
<text text-anchor="middle" x="1706.5" y="-124.8" font-family="Times,serif" font-size="14.00">grad 0.0000</text>
</g>
<!-- 133219343886992&#45;&gt;133219343882576* -->
<g id="edge20" class="edge">
<title>133219343886992&#45;&gt;133219343882576*</title>
<path fill="none" stroke="black" d="M1721.02,-146.65C1730.79,-149.76 1740.71,-153.08 1750,-156.5 1760.25,-160.27 1771.23,-164.86 1781.07,-169.18"/>
<polygon fill="black" stroke="black" points="1779.89,-172.49 1790.45,-173.37 1782.74,-166.1 1779.89,-172.49"/>
</g>
<!-- 133219343886992tanh -->
<g id="node13" class="node">
<title>133219343886992tanh</title>
<ellipse fill="none" stroke="black" cx="1500" cy="-128.5" rx="27" ry="18"/>
<text text-anchor="middle" x="1500" y="-124.8" font-family="Times,serif" font-size="14.00">tanh</text>
</g>
<!-- 133219343886992tanh&#45;&gt;133219343886992 -->
<g id="edge4" class="edge">
<title>133219343886992tanh&#45;&gt;133219343886992</title>
<path fill="none" stroke="black" d="M1527.21,-128.5C1535.34,-128.5 1544.85,-128.5 1554.94,-128.5"/>
<polygon fill="black" stroke="black" points="1555.19,-132 1565.19,-128.5 1555.19,-125 1555.19,-132"/>
</g>
<!-- 133219343876816 -->
<g id="node14" class="node">
<title>133219343876816</title>
<polygon fill="none" stroke="black" points="1565.5,-220.5 1565.5,-256.5 1747.5,-256.5 1747.5,-220.5 1565.5,-220.5"/>
<text text-anchor="middle" x="1575.5" y="-234.8" font-family="Times,serif" font-size="14.00"> </text>
<polyline fill="none" stroke="black" points="1585.5,-220.5 1585.5,-256.5 "/>
<text text-anchor="middle" x="1625.5" y="-234.8" font-family="Times,serif" font-size="14.00">data 0.7408</text>
<polyline fill="none" stroke="black" points="1665.5,-220.5 1665.5,-256.5 "/>
<text text-anchor="middle" x="1706.5" y="-234.8" font-family="Times,serif" font-size="14.00">grad 0.0000</text>
</g>
<!-- 133219343876816&#45;&gt;133219343892432+ -->
<g id="edge17" class="edge">
<title>133219343876816&#45;&gt;133219343892432+</title>
<path fill="none" stroke="black" d="M1747.82,-238.5C1757.57,-238.5 1767.04,-238.5 1775.57,-238.5"/>
<polygon fill="black" stroke="black" points="1775.83,-242 1785.83,-238.5 1775.83,-235 1775.83,-242"/>
</g>
<!-- 133219343876816*&#45;&gt;133219343876816 -->
<g id="edge5" class="edge">
<title>133219343876816*&#45;&gt;133219343876816</title>
<path fill="none" stroke="black" d="M1527.21,-238.5C1535.34,-238.5 1544.85,-238.5 1554.94,-238.5"/>
<polygon fill="black" stroke="black" points="1555.19,-242 1565.19,-238.5 1555.19,-235 1555.19,-242"/>
</g>
<!-- 133219343889104 -->
<g id="node16" class="node">
<title>133219343889104</title>
<polygon fill="none" stroke="black" points="634.5,-275.5 634.5,-311.5 816.5,-311.5 816.5,-275.5 634.5,-275.5"/>
<text text-anchor="middle" x="644.5" y="-289.8" font-family="Times,serif" font-size="14.00"> </text>
<polyline fill="none" stroke="black" points="654.5,-275.5 654.5,-311.5 "/>
<text text-anchor="middle" x="694.5" y="-289.8" font-family="Times,serif" font-size="14.00">data 1.4461</text>
<polyline fill="none" stroke="black" points="734.5,-275.5 734.5,-311.5 "/>
<text text-anchor="middle" x="775.5" y="-289.8" font-family="Times,serif" font-size="14.00">grad 0.0000</text>
</g>
<!-- 133219343889104&#45;&gt;133219343891280+ -->
<g id="edge34" class="edge">
<title>133219343889104&#45;&gt;133219343891280+</title>
<path fill="none" stroke="black" d="M816.63,-293.5C827.18,-293.5 837.43,-293.5 846.6,-293.5"/>
<polygon fill="black" stroke="black" points="846.82,-297 856.82,-293.5 846.82,-290 846.82,-297"/>
</g>
<!-- 133219343889104*&#45;&gt;133219343889104 -->
<g id="edge6" class="edge">
<title>133219343889104*&#45;&gt;133219343889104</title>
<path fill="none" stroke="black" d="M594.19,-293.5C602.92,-293.5 613.23,-293.5 624.17,-293.5"/>
<polygon fill="black" stroke="black" points="624.36,-297 634.36,-293.5 624.36,-290 624.36,-297"/>
</g>
<!-- 133219345046288 -->
<g id="node18" class="node">
<title>133219345046288</title>
<polygon fill="none" stroke="black" points="1563,-165.5 1563,-201.5 1750,-201.5 1750,-165.5 1563,-165.5"/>
<text text-anchor="middle" x="1573" y="-179.8" font-family="Times,serif" font-size="14.00"> </text>
<polyline fill="none" stroke="black" points="1583,-165.5 1583,-201.5 "/>
<text text-anchor="middle" x="1625.5" y="-179.8" font-family="Times,serif" font-size="14.00">data &#45;0.8503</text>
<polyline fill="none" stroke="black" points="1668,-165.5 1668,-201.5 "/>
<text text-anchor="middle" x="1709" y="-179.8" font-family="Times,serif" font-size="14.00">grad 0.2490</text>
</g>
<!-- 133219345046288&#45;&gt;133219343882576* -->
<g id="edge25" class="edge">
<title>133219345046288&#45;&gt;133219343882576*</title>
<path fill="none" stroke="black" d="M1750.05,-183.5C1759.06,-183.5 1767.79,-183.5 1775.7,-183.5"/>
<polygon fill="black" stroke="black" points="1775.95,-187 1785.95,-183.5 1775.95,-180 1775.95,-187"/>
</g>
<!-- 133219343892432 -->
<g id="node19" class="node">
<title>133219343892432</title>
<polygon fill="none" stroke="black" points="1878.5,-220.5 1878.5,-256.5 2060.5,-256.5 2060.5,-220.5 1878.5,-220.5"/>
<text text-anchor="middle" x="1888.5" y="-234.8" font-family="Times,serif" font-size="14.00"> </text>
<polyline fill="none" stroke="black" points="1898.5,-220.5 1898.5,-256.5 "/>
<text text-anchor="middle" x="1938.5" y="-234.8" font-family="Times,serif" font-size="14.00">data 0.9457</text>
<polyline fill="none" stroke="black" points="1978.5,-220.5 1978.5,-256.5 "/>
<text text-anchor="middle" x="2019.5" y="-234.8" font-family="Times,serif" font-size="14.00">grad 0.0000</text>
</g>
<!-- 133219343892432&#45;&gt;133219343890192+ -->
<g id="edge31" class="edge">
<title>133219343892432&#45;&gt;133219343890192+</title>
<path fill="none" stroke="black" d="M2060.82,-222.13C2071.07,-220.27 2081.01,-218.47 2089.88,-216.87"/>
<polygon fill="black" stroke="black" points="2090.54,-220.3 2099.75,-215.08 2089.29,-213.42 2090.54,-220.3"/>
</g>
<!-- 133219343892432+&#45;&gt;133219343892432 -->
<g id="edge7" class="edge">
<title>133219343892432+&#45;&gt;133219343892432</title>
<path fill="none" stroke="black" d="M1840.21,-238.5C1848.34,-238.5 1857.85,-238.5 1867.94,-238.5"/>
<polygon fill="black" stroke="black" points="1868.19,-242 1878.19,-238.5 1868.19,-235 1868.19,-242"/>
</g>
<!-- 133219343885072 -->
<g id="node21" class="node">
<title>133219343885072</title>
<polygon fill="none" stroke="black" points="634.5,-55.5 634.5,-91.5 816.5,-91.5 816.5,-55.5 634.5,-55.5"/>
<text text-anchor="middle" x="644.5" y="-69.8" font-family="Times,serif" font-size="14.00"> </text>
<polyline fill="none" stroke="black" points="654.5,-55.5 654.5,-91.5 "/>
<text text-anchor="middle" x="694.5" y="-69.8" font-family="Times,serif" font-size="14.00">data 3.0000</text>
<polyline fill="none" stroke="black" points="734.5,-55.5 734.5,-91.5 "/>
<text text-anchor="middle" x="775.5" y="-69.8" font-family="Times,serif" font-size="14.00">grad 0.0000</text>
</g>
<!-- 133219343889680* -->
<g id="node30" class="node">
<title>133219343889680*</title>
<ellipse fill="none" stroke="black" cx="884" cy="-73.5" rx="27" ry="18"/>
<text text-anchor="middle" x="884" y="-69.8" font-family="Times,serif" font-size="14.00">*</text>
</g>
<!-- 133219343885072&#45;&gt;133219343889680* -->
<g id="edge30" class="edge">
<title>133219343885072&#45;&gt;133219343889680*</title>
<path fill="none" stroke="black" d="M816.63,-73.5C827.18,-73.5 837.43,-73.5 846.6,-73.5"/>
<polygon fill="black" stroke="black" points="846.82,-77 856.82,-73.5 846.82,-70 846.82,-77"/>
</g>
<!-- 133219343891280 -->
<g id="node22" class="node">
<title>133219343891280</title>
<polygon fill="none" stroke="black" points="947,-275.5 947,-311.5 1129,-311.5 1129,-275.5 947,-275.5"/>
<text text-anchor="middle" x="957" y="-289.8" font-family="Times,serif" font-size="14.00"> </text>
<polyline fill="none" stroke="black" points="967,-275.5 967,-311.5 "/>
<text text-anchor="middle" x="1007" y="-289.8" font-family="Times,serif" font-size="14.00">data 1.2717</text>
<polyline fill="none" stroke="black" points="1047,-275.5 1047,-311.5 "/>
<text text-anchor="middle" x="1088" y="-289.8" font-family="Times,serif" font-size="14.00">grad 0.0000</text>
</g>
<!-- 133219343883216tanh -->
<g id="node28" class="node">
<title>133219343883216tanh</title>
<ellipse fill="none" stroke="black" cx="1192" cy="-293.5" rx="27" ry="18"/>
<text text-anchor="middle" x="1192" y="-289.8" font-family="Times,serif" font-size="14.00">tanh</text>
</g>
<!-- 133219343891280&#45;&gt;133219343883216tanh -->
<g id="edge18" class="edge">
<title>133219343891280&#45;&gt;133219343883216tanh</title>
<path fill="none" stroke="black" d="M1129.18,-293.5C1138.14,-293.5 1146.83,-293.5 1154.73,-293.5"/>
<polygon fill="black" stroke="black" points="1154.96,-297 1164.96,-293.5 1154.96,-290 1154.96,-297"/>
</g>
<!-- 133219343891280+&#45;&gt;133219343891280 -->
<g id="edge8" class="edge">
<title>133219343891280+&#45;&gt;133219343891280</title>
<path fill="none" stroke="black" d="M911.13,-293.5C918.67,-293.5 927.39,-293.5 936.64,-293.5"/>
<polygon fill="black" stroke="black" points="936.87,-297 946.87,-293.5 936.87,-290 936.87,-297"/>
</g>
<!-- 133219343878992 -->
<g id="node24" class="node">
<title>133219343878992</title>
<polygon fill="none" stroke="black" points="947,-110.5 947,-146.5 1129,-146.5 1129,-110.5 947,-110.5"/>
<text text-anchor="middle" x="957" y="-124.8" font-family="Times,serif" font-size="14.00"> </text>
<polyline fill="none" stroke="black" points="967,-110.5 967,-146.5 "/>
<text text-anchor="middle" x="1007" y="-124.8" font-family="Times,serif" font-size="14.00">data 1.4105</text>
<polyline fill="none" stroke="black" points="1047,-110.5 1047,-146.5 "/>
<text text-anchor="middle" x="1088" y="-124.8" font-family="Times,serif" font-size="14.00">grad 0.0000</text>
</g>
<!-- 133219343892304+ -->
<g id="node41" class="node">
<title>133219343892304+</title>
<ellipse fill="none" stroke="black" cx="1192" cy="-128.5" rx="27" ry="18"/>
<text text-anchor="middle" x="1192" y="-124.8" font-family="Times,serif" font-size="14.00">+</text>
</g>
<!-- 133219343878992&#45;&gt;133219343892304+ -->
<g id="edge40" class="edge">
<title>133219343878992&#45;&gt;133219343892304+</title>
<path fill="none" stroke="black" d="M1129.18,-128.5C1138.14,-128.5 1146.83,-128.5 1154.73,-128.5"/>
<polygon fill="black" stroke="black" points="1154.96,-132 1164.96,-128.5 1154.96,-125 1154.96,-132"/>
</g>
<!-- 133219343878992+&#45;&gt;133219343878992 -->
<g id="edge9" class="edge">
<title>133219343878992+&#45;&gt;133219343878992</title>
<path fill="none" stroke="black" d="M911.13,-128.5C918.67,-128.5 927.39,-128.5 936.64,-128.5"/>
<polygon fill="black" stroke="black" points="936.87,-132 946.87,-128.5 936.87,-125 936.87,-132"/>
</g>
<!-- 133223314512784 -->
<g id="node26" class="node">
<title>133223314512784</title>
<polygon fill="none" stroke="black" points="4.5,-413.5 4.5,-449.5 186.5,-449.5 186.5,-413.5 4.5,-413.5"/>
<text text-anchor="middle" x="14.5" y="-427.8" font-family="Times,serif" font-size="14.00"> </text>
<polyline fill="none" stroke="black" points="24.5,-413.5 24.5,-449.5 "/>
<text text-anchor="middle" x="64.5" y="-427.8" font-family="Times,serif" font-size="14.00">data 2.0000</text>
<polyline fill="none" stroke="black" points="104.5,-413.5 104.5,-449.5 "/>
<text text-anchor="middle" x="145.5" y="-427.8" font-family="Times,serif" font-size="14.00">grad 0.0000</text>
</g>
<!-- 133223314519632* -->
<g id="node36" class="node">
<title>133223314519632*</title>
<ellipse fill="none" stroke="black" cx="254" cy="-403.5" rx="27" ry="18"/>
<text text-anchor="middle" x="254" y="-399.8" font-family="Times,serif" font-size="14.00">*</text>
</g>
<!-- 133223314512784&#45;&gt;133223314519632* -->
<g id="edge32" class="edge">
<title>133223314512784&#45;&gt;133223314519632*</title>
<path fill="none" stroke="black" d="M186.63,-415.37C197.59,-413.41 208.23,-411.51 217.67,-409.82"/>
<polygon fill="black" stroke="black" points="218.53,-413.22 227.76,-408.02 217.3,-406.33 218.53,-413.22"/>
</g>
<!-- 133219343883216 -->
<g id="node27" class="node">
<title>133219343883216</title>
<polygon fill="none" stroke="black" points="1255,-275.5 1255,-311.5 1437,-311.5 1437,-275.5 1255,-275.5"/>
<text text-anchor="middle" x="1265" y="-289.8" font-family="Times,serif" font-size="14.00"> </text>
<polyline fill="none" stroke="black" points="1275,-275.5 1275,-311.5 "/>
<text text-anchor="middle" x="1315" y="-289.8" font-family="Times,serif" font-size="14.00">data 0.8543</text>
<polyline fill="none" stroke="black" points="1355,-275.5 1355,-311.5 "/>
<text text-anchor="middle" x="1396" y="-289.8" font-family="Times,serif" font-size="14.00">grad 0.0000</text>
</g>
<!-- 133219343883216&#45;&gt;133219343876816* -->
<g id="edge23" class="edge">
<title>133219343883216&#45;&gt;133219343876816*</title>
<path fill="none" stroke="black" d="M1411.26,-275.36C1419.97,-272.57 1428.75,-269.59 1437,-266.5 1447.48,-262.58 1458.69,-257.73 1468.66,-253.17"/>
<polygon fill="black" stroke="black" points="1470.18,-256.32 1477.77,-248.93 1467.23,-249.98 1470.18,-256.32"/>
</g>
<!-- 133219343883216tanh&#45;&gt;133219343883216 -->
<g id="edge10" class="edge">
<title>133219343883216tanh&#45;&gt;133219343883216</title>
<path fill="none" stroke="black" d="M1219.13,-293.5C1226.67,-293.5 1235.39,-293.5 1244.64,-293.5"/>
<polygon fill="black" stroke="black" points="1244.87,-297 1254.87,-293.5 1244.87,-290 1244.87,-297"/>
</g>
<!-- 133219343889680 -->
<g id="node29" class="node">
<title>133219343889680</title>
<polygon fill="none" stroke="black" points="947,-55.5 947,-91.5 1129,-91.5 1129,-55.5 947,-55.5"/>
<text text-anchor="middle" x="957" y="-69.8" font-family="Times,serif" font-size="14.00"> </text>
<polyline fill="none" stroke="black" points="967,-55.5 967,-91.5 "/>
<text text-anchor="middle" x="1007" y="-69.8" font-family="Times,serif" font-size="14.00">data 3.2124</text>
<polyline fill="none" stroke="black" points="1047,-55.5 1047,-91.5 "/>
<text text-anchor="middle" x="1088" y="-69.8" font-family="Times,serif" font-size="14.00">grad 0.0000</text>
</g>
<!-- 133219343889680&#45;&gt;133219343892304+ -->
<g id="edge27" class="edge">
<title>133219343889680&#45;&gt;133219343892304+</title>
<path fill="none" stroke="black" d="M1100.3,-91.59C1109.97,-94.72 1119.8,-98.08 1129,-101.5 1139.23,-105.31 1150.21,-109.91 1160.05,-114.23"/>
<polygon fill="black" stroke="black" points="1158.87,-117.54 1169.43,-118.42 1161.72,-111.15 1158.87,-117.54"/>
</g>
<!-- 133219343889680*&#45;&gt;133219343889680 -->
<g id="edge11" class="edge">
<title>133219343889680*&#45;&gt;133219343889680</title>
<path fill="none" stroke="black" d="M911.13,-73.5C918.67,-73.5 927.39,-73.5 936.64,-73.5"/>
<polygon fill="black" stroke="black" points="936.87,-77 946.87,-73.5 936.87,-70 936.87,-77"/>
</g>
<!-- 133219351045584 -->
<g id="node31" class="node">
<title>133219351045584</title>
<polygon fill="none" stroke="black" points="632.5,-0.5 632.5,-36.5 818.5,-36.5 818.5,-0.5 632.5,-0.5"/>
<text text-anchor="middle" x="642.5" y="-14.8" font-family="Times,serif" font-size="14.00"> </text>
<polyline fill="none" stroke="black" points="652.5,-0.5 652.5,-36.5 "/>
<text text-anchor="middle" x="692.5" y="-14.8" font-family="Times,serif" font-size="14.00">data 1.0708</text>
<polyline fill="none" stroke="black" points="732.5,-0.5 732.5,-36.5 "/>
<text text-anchor="middle" x="775.5" y="-14.8" font-family="Times,serif" font-size="14.00">grad &#45;0.3557</text>
</g>
<!-- 133219351045584&#45;&gt;133219343889680* -->
<g id="edge39" class="edge">
<title>133219351045584&#45;&gt;133219343889680*</title>
<path fill="none" stroke="black" d="M791.15,-36.51C801.21,-39.64 811.43,-43.01 821,-46.5 831.26,-50.24 842.25,-54.82 852.08,-59.15"/>
<polygon fill="black" stroke="black" points="850.9,-62.45 861.46,-63.34 853.76,-56.06 850.9,-62.45"/>
</g>
<!-- 133219343879760 -->
<g id="node32" class="node">
<title>133219343879760</title>
<polygon fill="none" stroke="black" points="2497,-192.5 2497,-228.5 2679,-228.5 2679,-192.5 2497,-192.5"/>
<text text-anchor="middle" x="2507" y="-206.8" font-family="Times,serif" font-size="14.00"> </text>
<polyline fill="none" stroke="black" points="2517,-192.5 2517,-228.5 "/>
<text text-anchor="middle" x="2557" y="-206.8" font-family="Times,serif" font-size="14.00">data 0.0952</text>
<polyline fill="none" stroke="black" points="2597,-192.5 2597,-228.5 "/>
<text text-anchor="middle" x="2638" y="-206.8" font-family="Times,serif" font-size="14.00">grad 0.0000</text>
</g>
<!-- 133219343879760tanh -->
<g id="node33" class="node">
<title>133219343879760tanh</title>
<ellipse fill="none" stroke="black" cx="2434" cy="-210.5" rx="27" ry="18"/>
<text text-anchor="middle" x="2434" y="-206.8" font-family="Times,serif" font-size="14.00">tanh</text>
</g>
<!-- 133219343879760tanh&#45;&gt;133219343879760 -->
<g id="edge12" class="edge">
<title>133219343879760tanh&#45;&gt;133219343879760</title>
<path fill="none" stroke="black" d="M2461.13,-210.5C2468.67,-210.5 2477.39,-210.5 2486.64,-210.5"/>
<polygon fill="black" stroke="black" points="2486.87,-214 2496.87,-210.5 2486.87,-207 2486.87,-214"/>
</g>
<!-- 133219347961424 -->
<g id="node34" class="node">
<title>133219347961424</title>
<polygon fill="none" stroke="black" points="319.5,-220.5 319.5,-256.5 501.5,-256.5 501.5,-220.5 319.5,-220.5"/>
<text text-anchor="middle" x="329.5" y="-234.8" font-family="Times,serif" font-size="14.00"> </text>
<polyline fill="none" stroke="black" points="339.5,-220.5 339.5,-256.5 "/>
<text text-anchor="middle" x="379.5" y="-234.8" font-family="Times,serif" font-size="14.00">data 3.0000</text>
<polyline fill="none" stroke="black" points="419.5,-220.5 419.5,-256.5 "/>
<text text-anchor="middle" x="460.5" y="-234.8" font-family="Times,serif" font-size="14.00">grad 0.0000</text>
</g>
<!-- 133219347961424&#45;&gt;133219343889104* -->
<g id="edge42" class="edge">
<title>133219347961424&#45;&gt;133219343889104*</title>
<path fill="none" stroke="black" d="M475.02,-256.65C484.79,-259.76 494.71,-263.08 504,-266.5 514.25,-270.27 525.23,-274.86 535.07,-279.18"/>
<polygon fill="black" stroke="black" points="533.89,-282.49 544.45,-283.37 536.74,-276.1 533.89,-282.49"/>
</g>
<!-- 133223314519632 -->
<g id="node35" class="node">
<title>133223314519632</title>
<polygon fill="none" stroke="black" points="317,-385.5 317,-421.5 504,-421.5 504,-385.5 317,-385.5"/>
<text text-anchor="middle" x="327" y="-399.8" font-family="Times,serif" font-size="14.00"> </text>
<polyline fill="none" stroke="black" points="337,-385.5 337,-421.5 "/>
<text text-anchor="middle" x="379.5" y="-399.8" font-family="Times,serif" font-size="14.00">data &#45;0.8752</text>
<polyline fill="none" stroke="black" points="422,-385.5 422,-421.5 "/>
<text text-anchor="middle" x="463" y="-399.8" font-family="Times,serif" font-size="14.00">grad 0.0000</text>
</g>
<!-- 133223314519632&#45;&gt;133223314506064+ -->
<g id="edge41" class="edge">
<title>133223314519632&#45;&gt;133223314506064+</title>
<path fill="none" stroke="black" d="M477.56,-385.45C486.51,-382.64 495.53,-379.63 504,-376.5 514.49,-372.62 525.71,-367.78 535.68,-363.22"/>
<polygon fill="black" stroke="black" points="537.2,-366.37 544.79,-358.97 534.25,-360.02 537.2,-366.37"/>
</g>
<!-- 133223314519632*&#45;&gt;133223314519632 -->
<g id="edge13" class="edge">
<title>133223314519632*&#45;&gt;133223314519632</title>
<path fill="none" stroke="black" d="M281.21,-403.5C288.73,-403.5 297.43,-403.5 306.67,-403.5"/>
<polygon fill="black" stroke="black" points="306.89,-407 316.89,-403.5 306.89,-400 306.89,-407"/>
</g>
<!-- 133219343890192 -->
<g id="node37" class="node">
<title>133219343890192</title>
<polygon fill="none" stroke="black" points="2189,-192.5 2189,-228.5 2371,-228.5 2371,-192.5 2189,-192.5"/>
<text text-anchor="middle" x="2199" y="-206.8" font-family="Times,serif" font-size="14.00"> </text>
<polyline fill="none" stroke="black" points="2209,-192.5 2209,-228.5 "/>
<text text-anchor="middle" x="2249" y="-206.8" font-family="Times,serif" font-size="14.00">data 0.0955</text>
<polyline fill="none" stroke="black" points="2289,-192.5 2289,-228.5 "/>
<text text-anchor="middle" x="2330" y="-206.8" font-family="Times,serif" font-size="14.00">grad 0.0000</text>
</g>
<!-- 133219343890192&#45;&gt;133219343879760tanh -->
<g id="edge38" class="edge">
<title>133219343890192&#45;&gt;133219343879760tanh</title>
<path fill="none" stroke="black" d="M2371.18,-210.5C2380.14,-210.5 2388.83,-210.5 2396.73,-210.5"/>
<polygon fill="black" stroke="black" points="2396.96,-214 2406.96,-210.5 2396.96,-207 2396.96,-214"/>
</g>
<!-- 133219343890192+&#45;&gt;133219343890192 -->
<g id="edge14" class="edge">
<title>133219343890192+&#45;&gt;133219343890192</title>
<path fill="none" stroke="black" d="M2153.13,-210.5C2160.67,-210.5 2169.39,-210.5 2178.64,-210.5"/>
<polygon fill="black" stroke="black" points="2178.87,-214 2188.87,-210.5 2178.87,-207 2178.87,-214"/>
</g>
<!-- 133223313966864 -->
<g id="node39" class="node">
<title>133223313966864</title>
<polygon fill="none" stroke="black" points="0,-358.5 0,-394.5 191,-394.5 191,-358.5 0,-358.5"/>
<text text-anchor="middle" x="10" y="-372.8" font-family="Times,serif" font-size="14.00"> </text>
<polyline fill="none" stroke="black" points="20,-358.5 20,-394.5 "/>
<text text-anchor="middle" x="62.5" y="-372.8" font-family="Times,serif" font-size="14.00">data &#45;0.4376</text>
<polyline fill="none" stroke="black" points="105,-358.5 105,-394.5 "/>
<text text-anchor="middle" x="148" y="-372.8" font-family="Times,serif" font-size="14.00">grad &#45;0.3218</text>
</g>
<!-- 133223313966864&#45;&gt;133223314519632* -->
<g id="edge19" class="edge">
<title>133223313966864&#45;&gt;133223314519632*</title>
<path fill="none" stroke="black" d="M191.15,-392.83C200.46,-394.44 209.44,-395.99 217.54,-397.38"/>
<polygon fill="black" stroke="black" points="217.19,-400.87 227.64,-399.12 218.38,-393.98 217.19,-400.87"/>
</g>
<!-- 133219343892304 -->
<g id="node40" class="node">
<title>133219343892304</title>
<polygon fill="none" stroke="black" points="1255,-110.5 1255,-146.5 1437,-146.5 1437,-110.5 1255,-110.5"/>
<text text-anchor="middle" x="1265" y="-124.8" font-family="Times,serif" font-size="14.00"> </text>
<polyline fill="none" stroke="black" points="1275,-110.5 1275,-146.5 "/>
<text text-anchor="middle" x="1315" y="-124.8" font-family="Times,serif" font-size="14.00">data 4.6230</text>
<polyline fill="none" stroke="black" points="1355,-110.5 1355,-146.5 "/>
<text text-anchor="middle" x="1396" y="-124.8" font-family="Times,serif" font-size="14.00">grad 0.0000</text>
</g>
<!-- 133219343892304&#45;&gt;133219343886992tanh -->
<g id="edge35" class="edge">
<title>133219343892304&#45;&gt;133219343886992tanh</title>
<path fill="none" stroke="black" d="M1437.18,-128.5C1446.14,-128.5 1454.83,-128.5 1462.73,-128.5"/>
<polygon fill="black" stroke="black" points="1462.96,-132 1472.96,-128.5 1462.96,-125 1462.96,-132"/>
</g>
<!-- 133219343892304+&#45;&gt;133219343892304 -->
<g id="edge15" class="edge">
<title>133219343892304+&#45;&gt;133219343892304</title>
<path fill="none" stroke="black" d="M1219.13,-128.5C1226.67,-128.5 1235.39,-128.5 1244.64,-128.5"/>
<polygon fill="black" stroke="black" points="1244.87,-132 1254.87,-128.5 1244.87,-125 1244.87,-132"/>
</g>
<!-- 133219351043984 -->
<g id="node42" class="node">
<title>133219351043984</title>
<polygon fill="none" stroke="black" points="630,-110.5 630,-146.5 821,-146.5 821,-110.5 630,-110.5"/>
<text text-anchor="middle" x="640" y="-124.8" font-family="Times,serif" font-size="14.00"> </text>
<polyline fill="none" stroke="black" points="650,-110.5 650,-146.5 "/>
<text text-anchor="middle" x="692.5" y="-124.8" font-family="Times,serif" font-size="14.00">data &#45;0.0154</text>
<polyline fill="none" stroke="black" points="735,-110.5 735,-146.5 "/>
<text text-anchor="middle" x="778" y="-124.8" font-family="Times,serif" font-size="14.00">grad &#45;0.4396</text>
</g>
<!-- 133219351043984&#45;&gt;133219343878992+ -->
<g id="edge21" class="edge">
<title>133219351043984&#45;&gt;133219343878992+</title>
<path fill="none" stroke="black" d="M821.15,-128.5C830.09,-128.5 838.73,-128.5 846.57,-128.5"/>
<polygon fill="black" stroke="black" points="846.73,-132 856.73,-128.5 846.73,-125 846.73,-132"/>
</g>
<!-- 133219350493136 -->
<g id="node43" class="node">
<title>133219350493136</title>
<polygon fill="none" stroke="black" points="319.5,-330.5 319.5,-366.5 501.5,-366.5 501.5,-330.5 319.5,-330.5"/>
<text text-anchor="middle" x="329.5" y="-344.8" font-family="Times,serif" font-size="14.00"> </text>
<polyline fill="none" stroke="black" points="339.5,-330.5 339.5,-366.5 "/>
<text text-anchor="middle" x="379.5" y="-344.8" font-family="Times,serif" font-size="14.00">data 0.7009</text>
<polyline fill="none" stroke="black" points="419.5,-330.5 419.5,-366.5 "/>
<text text-anchor="middle" x="460.5" y="-344.8" font-family="Times,serif" font-size="14.00">grad 0.4518</text>
</g>
<!-- 133219350493136&#45;&gt;133223314506064+ -->
<g id="edge16" class="edge">
<title>133219350493136&#45;&gt;133223314506064+</title>
<path fill="none" stroke="black" d="M501.82,-348.5C511.57,-348.5 521.04,-348.5 529.57,-348.5"/>
<polygon fill="black" stroke="black" points="529.83,-352 539.83,-348.5 529.83,-345 529.83,-352"/>
</g>
</g>
</svg>
